<?xml version="1.0" encoding="UTF-8" standalone="no"?>
<!-- Created with Inkscape (http://www.inkscape.org/) -->

<svg
   version="1.1"
   id="svg1"
   width="750.76117"
   height="197.89905"
   viewBox="0 0 750.76117 197.89905"
   xmlns="http://www.w3.org/2000/svg"
   xmlns:svg="http://www.w3.org/2000/svg">
  <defs
     id="defs1" />
  <g
     id="g1"
     transform="translate(824.27972,-741.8252)">
    <path
       id="rect29"
       style="fill:#f08800;fill-opacity:1;stroke:none;stroke-width:1.44052;stroke-dasharray:none;stroke-opacity:1"
       d="m -199.45506,840.77472 98.94954,98.94954 26.98696,-26.98697 -71.96456,-71.96456 71.962572,-71.96256 -26.984972,-26.98498 z" />
    <path
       id="path32"
       style="fill:#f08800;fill-opacity:1;stroke:none;stroke-width:1.44052;stroke-dasharray:none;stroke-opacity:1"
       d="m -355.66121,840.77472 98.94953,98.94954 26.98696,-26.98697 -71.96456,-71.96456 71.96257,-71.96256 -26.98497,-26.98498 z" />
    <path
       id="path33"
       style="fill:#f08800;fill-opacity:1;stroke:none;stroke-width:1.44052;stroke-dasharray:none;stroke-opacity:1"
       d="m -511.86737,840.77472 98.94952,98.94954 26.98698,-26.98697 -71.96456,-71.96456 71.96257,-71.96256 -26.98498,-26.98498 z" />
    <path
       id="path34"
       style="fill:#f08800;fill-opacity:1;stroke:none;stroke-width:1.44052;stroke-dasharray:none;stroke-opacity:1"
       d="m -668.07354,840.77472 98.94953,98.94954 26.98696,-26.98697 -71.96455,-71.96456 71.96257,-71.96256 -26.98498,-26.98498 z" />
    <path
       id="path35"
       style="fill:#f08800;fill-opacity:1;stroke:none;stroke-width:1.44052;stroke-dasharray:none;stroke-opacity:1"
       d="m -824.2797,840.77472 98.94953,98.94954 26.98697,-26.98697 -71.96456,-71.96456 71.96257,-71.96256 -26.98498,-26.98498 z" />
  </g>
</svg>
